<svg xmlns="http://www.w3.org/2000/svg" xmlns:xlink="http://www.w3.org/1999/xlink" width="500" zoomAndPan="magnify" viewBox="0 0 375 374.999991" height="500" preserveAspectRatio="xMidYMid meet" version="1.0"><defs><g/></defs><path fill="rgb(18.03894%, 17.649841%, 17.649841%)" d="M 187.5 0 C 83.945312 0 0 83.945312 0 187.5 C 0 291.054688 83.945312 375 187.5 375 C 291.054688 375 375 291.054688 375 187.5 C 375 83.945312 291.054688 0 187.5 0 " fill-opacity="1" fill-rule="nonzero"/><g fill="rgb(1.959229%, 67.059326%, 76.858521%)" fill-opacity="1"><g transform="translate(52.673363, 220.457105)"><g><path d="M 36.140625 -24.21875 L 17.257812 -33.757812 L 36.140625 -43.101562 L 36.140625 -60.167969 L -0.191406 -40.8125 L -0.191406 -26.507812 L 36.140625 -7.628906 Z M 36.140625 -24.21875 "/></g></g></g><g fill="rgb(100%, 100%, 100%)" fill-opacity="1"><g transform="translate(96.616193, 220.457105)"><g><path d="M 40.8125 -29.371094 L 40.8125 -67.226562 L 8.488281 -67.226562 L 8.488281 -52.253906 L 24.601562 -52.253906 L 24.601562 -29.371094 C 24.601562 -19.070312 19.355469 -15.257812 1.714844 -15.257812 L 1.714844 0 C 30.132812 0 40.8125 -8.105469 40.8125 -29.371094 Z M 40.8125 -29.371094 "/></g></g></g><g fill="rgb(100%, 100%, 100%)" fill-opacity="1"><g transform="translate(142.380756, 220.457105)"><g><path d="M 31.179688 -66.75 L 4.671875 -66.75 L 4.671875 0 L 31.179688 0 C 53.207031 0 64.269531 -16.59375 64.269531 -33.277344 C 64.269531 -49.964844 53.207031 -66.75 31.179688 -66.75 Z M 31.179688 -15.542969 L 20.882812 -15.542969 L 20.882812 -51.300781 L 31.179688 -51.300781 C 42.433594 -51.300781 48.15625 -42.050781 48.15625 -33.277344 C 48.15625 -24.507812 42.433594 -15.542969 31.179688 -15.542969 Z M 31.179688 -15.542969 "/></g></g></g><g fill="rgb(100%, 100%, 100%)" fill-opacity="1"><g transform="translate(209.502114, 220.457105)"><g/></g></g><g fill="rgb(1.959229%, 67.059326%, 76.858521%)" fill-opacity="1"><g transform="translate(233.422584, 220.457105)"><g><path d="M 13.828125 5.339844 L 39.667969 -70.46875 L 23.933594 -70.46875 L -1.90625 5.339844 Z M 13.828125 5.339844 "/></g></g></g><g fill="rgb(1.959229%, 67.059326%, 76.858521%)" fill-opacity="1"><g transform="translate(277.566327, 220.457105)"><g><path d="M -0.09375 -43.578125 L 18.691406 -34.328125 L -0.09375 -25.078125 L -0.09375 -8.199219 L 35.1875 -26.414062 L 35.1875 -41.859375 L -0.09375 -60.742188 Z M -0.09375 -43.578125 "/></g></g></g></svg>